<?xml version="1.0" encoding="UTF-8" standalone="no"?>
<!-- Created with Inkscape (http://www.inkscape.org/) -->

<svg
   xmlns:dc="http://purl.org/dc/elements/1.1/"
   xmlns:cc="http://creativecommons.org/ns#"
   xmlns:rdf="http://www.w3.org/1999/02/22-rdf-syntax-ns#"
   xmlns:svg="http://www.w3.org/2000/svg"
   xmlns="http://www.w3.org/2000/svg"
   xmlns:sodipodi="http://sodipodi.sourceforge.net/DTD/sodipodi-0.dtd"
   xmlns:inkscape="http://www.inkscape.org/namespaces/inkscape"
   width="1000mm"
   height="228.25697mm"
   viewBox="0 0 1000 228.25697"
   version="1.1"
   id="svg2772"
   inkscape:version="0.92.2 (5c3e80d, 2017-08-06)"
   sodipodi:docname="Hypermart 2015.svg">
  <defs
     id="defs2766" />
  <sodipodi:namedview
     id="base"
     pagecolor="#ffffff"
     bordercolor="#666666"
     borderopacity="1.0"
     inkscape:pageopacity="0.0"
     inkscape:pageshadow="2"
     inkscape:zoom="0.35"
     inkscape:cx="2088.0363"
     inkscape:cy="293.65087"
     inkscape:document-units="mm"
     inkscape:current-layer="layer1"
     showgrid="false"
     inkscape:window-width="1366"
     inkscape:window-height="705"
     inkscape:window-x="-8"
     inkscape:window-y="-8"
     inkscape:window-maximized="1"
     fit-margin-top="0"
     fit-margin-left="0"
     fit-margin-right="0"
     fit-margin-bottom="0" />
  <metadata
     id="metadata2769">
    <rdf:RDF>
      <cc:Work
         rdf:about="">
        <dc:format>image/svg+xml</dc:format>
        <dc:type
           rdf:resource="http://purl.org/dc/dcmitype/StillImage" />
        <dc:title></dc:title>
      </cc:Work>
    </rdf:RDF>
  </metadata>
  <g
     inkscape:label="Layer 1"
     inkscape:groupmode="layer"
     id="layer1"
     transform="translate(-97.281471,152.91899)">
    <path
       d="m 1097.2815,54.818621 c 0,11.37506 -9.181,20.519363 -20.5101,20.519363 H 117.76394 c -11.31975,0 -20.482469,-9.144303 -20.482469,-20.519363 V -132.39965 c 0,-11.31052 9.162719,-20.51934 20.482469,-20.51934 h 959.00746 c 11.3291,0 20.5101,9.20882 20.5101,20.51934 z"
       style="fill:#0093d0;fill-opacity:1;fill-rule:nonzero;stroke:none;stroke-width:9.21803379"
       id="path1634"
       inkscape:connector-curvature="0" />
    <path
       d="m 289.13918,15.413612 c 0,7.936711 -6.40652,14.297164 -14.35235,14.297164 H 169.9776 c -7.8629,0 -14.27864,-6.360453 -14.27864,-14.297164 v -104.76298 c 0,-7.945934 6.41574,-14.324812 14.27864,-14.324812 h 104.80923 c 7.94583,0 14.35235,6.378878 14.35235,14.324812 z"
       style="fill:#fcee21;fill-opacity:1;fill-rule:nonzero;stroke:none;stroke-width:9.21803379"
       id="path1638"
       inkscape:connector-curvature="0" />
    <path
       d="m 398.43647,-62.841981 c -2.08255,-2.728533 -4.78412,-4.959291 -8.08432,-6.526377 -3.29994,-1.594706 -7.33752,-2.368934 -12.10309,-2.368934 -3.77942,0 -7.54029,0.801926 -11.0801,2.442881 -2.40657,1.161472 -4.79353,2.700887 -7.17161,4.618244 v -32.17093 c 0,-0.921861 -0.2613,-1.732932 -0.81002,-2.470317 -0.45205,-0.626855 -1.23595,-1.152326 -2.2942,-1.548716 -0.86752,-0.3133 -1.90748,-0.59001 -3.22652,-0.72824 -1.29082,-0.16723 -2.82072,-0.22994 -4.69188,-0.22994 -1.96235,0 -3.45672,0.0653 -4.75642,0.22994 -1.28036,0.13849 -2.38827,0.41468 -3.2448,0.72824 -1.04258,0.39639 -1.79774,0.921861 -2.27591,1.548716 -0.51476,0.737385 -0.79174,1.548717 -0.79174,2.470317 v 96.61422606 c 0,0.92186155 0.29527,1.74233924 0.83093,2.45202634 0.53566,0.6268554 1.27252,1.106077 2.30465,1.4656239 0.85706,0.3041516 1.91794,0.5437625 3.2354,0.672844 1.24379,0.1019065 2.76559,0.2038129 4.70129,0.2038129 1.82386,0 3.40132,-0.1019064 4.62734,-0.2038129 1.34568,-0.1280363 2.42485,-0.3686924 3.2448,-0.672844 1.06087,-0.3595469 1.80819,-0.8387685 2.31511,-1.4656239 0.5435,-0.7096871 0.83877,-1.53016479 0.83877,-2.45202634 V -43.188928 c 2.35168,-2.894457 4.60904,-5.115992 6.75666,-6.66463 2.08255,-1.484176 4.12982,-2.249259 6.04723,-2.249259 1.64096,0 2.97724,0.340995 4.12956,0.931007 1.09746,0.516326 2.00939,1.318252 2.74704,2.37834 0.75515,1.12463 1.36398,2.507422 1.76899,4.102023 0.40501,1.668392 0.61666,4.065153 0.61666,7.06102 v 37.39755606 c 0,0.92186155 0.33185,1.74207794 0.83877,2.45202634 0.48863,0.6268554 1.26207,1.0877861 2.27591,1.4656239 0.82048,0.3041516 1.88919,0.5437625 3.25395,0.672844 1.24379,0.1019065 2.83928,0.2038129 4.71043,0.2038129 1.769,0 3.33705,-0.1019064 4.63675,-0.2038129 1.33785,-0.1280363 2.4144,-0.3686924 3.2631,-0.672844 0.9877,-0.3780991 1.74286,-0.8387685 2.26807,-1.4656239 0.47817,-0.7096871 0.82048,-1.53016479 0.82048,-2.45202634 V -40.395828 c 0,-4.959291 -0.45205,-9.310227 -1.34569,-12.82229 -0.87535,-3.659565 -2.34124,-6.876648 -4.35089,-9.623628"
       style="fill:#fcee21;fill-opacity:1;fill-rule:nonzero;stroke:none;stroke-width:9.21803379"
       id="path1642"
       inkscape:connector-curvature="0" />
    <path
       d="m 479.78004,-70.211804 c -1.47372,-0.229943 -3.34593,-0.313297 -5.47551,-0.313297 -2.87586,0 -4.80241,0.08362 -6.02842,0.313297 -1.41102,0.295006 -2.43269,0.737384 -3.17112,1.382792 -0.75516,0.636001 -1.29082,1.742339 -1.65141,3.392231 l -12.59172,39.886425 -13.79944,-39.084447 c -0.36059,-1.244566 -0.73686,-2.175573 -1.18107,-2.931353 -0.47818,-0.949559 -1.28037,-1.714641 -2.39611,-2.166165 -0.85706,-0.378099 -1.9911,-0.580867 -3.43843,-0.691396 -1.25423,-0.07316 -2.93125,-0.101907 -5.12511,-0.101907 -2.34124,0 -4.28634,0.08362 -5.75197,0.313297 -1.78728,0.267309 -3.06059,0.746792 -3.9362,1.502467 -0.67415,0.590013 -1.47634,1.69609 -1.47634,3.502865 0,1.096932 0.29527,2.599399 1.03213,4.516834 l 22.56575,60.29515427 c 0.31356,0.85732078 0.82832,1.71464153 1.47373,2.48886943 0.26129,0.3318492 0.53566,0.5991577 0.87535,0.9033093 l -8.204,20.574654 c -0.45204,1.133774 -0.61666,2.092479 -0.5435,3.005091 0.0523,0.765082 0.40502,1.889711 1.74286,2.820718 0.7839,0.525472 1.93623,0.90331 3.40133,1.106077 1.25423,0.128037 2.88526,0.276454 4.96859,0.276454 3.9362,0 6.95028,-0.276454 9.06132,-0.875611 2.5163,-0.691397 4.18495,-1.935701 4.82096,-3.816267 l 7.92727,-23.2109998 21.84666,-64.3142402 c 0.44159,-1.41049 0.6637,-2.599399 0.6637,-3.696435 0,-1.456479 -0.55396,-2.710085 -1.67754,-3.613473 -0.86751,-0.719093 -2.17662,-1.198315 -3.93594,-1.465624"
       style="fill:#fcee21;fill-opacity:1;fill-rule:nonzero;stroke:none;stroke-width:9.21803379"
       id="path1646"
       inkscape:connector-curvature="0" />
    <path
       d="m 544.17552,-25.490963 c -0.47818,2.295247 -1.28037,4.406227 -2.23149,6.203752 -0.94852,1.779182 -2.19491,3.198635 -3.62265,4.231078 -1.41101,1.023246 -3.08802,1.502467 -5.11596,1.502467 -2.16617,0 -4.22207,-0.746791 -6.24086,-2.295247 -2.15571,-1.594705 -4.38773,-3.908452 -6.73837,-6.80291 v -20.427176 c 1.29082,-1.650101 2.52676,-3.069606 3.65975,-4.240302 1.25423,-1.244304 2.40656,-2.230706 3.5858,-2.995841 1.12359,-0.709687 2.20275,-1.235159 3.19856,-1.576153 1.06087,-0.313297 2.11913,-0.479222 3.16171,-0.479222 2.03813,0 3.70574,0.479222 5.06998,1.428781 1.37443,1.041536 2.55289,2.424328 3.41073,4.194182 0.93022,1.825171 1.59392,3.96377 1.9728,6.351229 0.38673,2.48887 0.59838,5.088373 0.59838,7.752365 0,2.387485 -0.2613,4.793392 -0.71073,7.153206 m 17.13622,-34.871817 c -2.30465,-3.521286 -5.31873,-6.305135 -8.90453,-8.342324 -3.6689,-2.046491 -8.06577,-3.032736 -13.16344,-3.032736 -2.40656,0 -4.75642,0.248233 -6.92259,0.765082 -2.17662,0.488628 -4.31404,1.308845 -6.34198,2.368933 -1.99893,1.069234 -4.00074,2.387486 -5.91815,3.95452 -0.87535,0.728239 -1.7507,1.493321 -2.70993,2.350642 v -3.521286 c 0,-0.811071 -0.20904,-1.567008 -0.64541,-2.249259 -0.45204,-0.691396 -1.17061,-1.216867 -2.11913,-1.594705 -0.74731,-0.285861 -1.72457,-0.50692 -2.86697,-0.654553 -1.10529,-0.146328 -2.38827,-0.203813 -3.90824,-0.203813 -1.62266,0 -2.9498,0.05487 -4.04673,0.203813 -1.17062,0.146327 -2.10084,0.368692 -2.83927,0.654553 -1.01384,0.378099 -1.6697,0.903309 -2.14788,1.594705 -0.47033,0.663699 -0.6637,1.437927 -0.6637,2.249259 v 91.627263 c 0,0.894164 0.28482,1.659246 0.81003,2.368933 0.47818,0.737385 1.26207,1.226013 2.32294,1.622403 0.82048,0.33185 1.90748,0.580606 3.20797,0.746792 1.26207,0.120197 2.86671,0.229943 4.71043,0.229943 1.88919,0 3.49356,-0.109746 4.71957,-0.229943 1.3274,-0.167231 2.38827,-0.414942 3.25396,-0.746792 1.04258,-0.39639 1.80557,-0.885018 2.2942,-1.622403 0.50692,-0.709687 0.79173,-1.474769 0.79173,-2.368933 V -1.053819 c 0.56179,0.48862847 1.12359,0.9955478 1.68799,1.40108327 1.5495,1.18917003 3.14342,2.21241543 4.71958,2.97741943 1.61221,0.8387686 3.33704,1.4841762 5.06083,1.8437231 1.66708,0.39639 3.5858,0.6360008 5.65058,0.6360008 4.83011,0 9.24579,-0.9678501 13.0712,-2.8852332 3.82542,-1.8528686 7.06108,-4.5997965 9.56824,-8.1118852 2.55288,-3.4014548 4.50766,-7.6694022 5.8442,-12.4904142 1.26207,-4.839485 1.88919,-10.314998 1.88919,-16.242192 0,-5.116018 -0.49908,-9.918608 -1.52076,-14.389349 -0.99554,-4.590573 -2.64538,-8.600435 -4.8855,-12.047983"
       style="fill:#fcee21;fill-opacity:1;fill-rule:nonzero;stroke:none;stroke-width:9.21803379"
       id="path1650"
       inkscape:connector-curvature="0" />
    <path
       d="m 609.99403,-53.978836 c 1.48417,-0.737385 3.28165,-1.096932 5.33728,-1.096932 4.08358,0 6.96884,1.216868 8.88625,3.714857 1.72457,2.304392 2.62709,5.420221 2.77473,9.356319 H 603.0623 c 0.20904,-1.447333 0.4233,-2.866811 0.85706,-4.148115 0.51737,-1.825171 1.32739,-3.447548 2.33339,-4.793393 0.99555,-1.216868 2.25762,-2.267549 3.74232,-3.032736 m 30.7883,-8.028923 c -2.68249,-3.069606 -6.10237,-5.503158 -10.25963,-7.180852 -4.11127,-1.742078 -9.04276,-2.544265 -14.76729,-2.544265 -5.38328,0 -10.32417,0.885019 -14.65677,2.700887 -4.36917,1.769776 -8.17629,4.507611 -11.22748,7.88142 -3.02348,3.456746 -5.41097,7.687824 -7.02422,12.591824 -1.54951,4.821038 -2.35169,10.305775 -2.35169,16.288259 0,6.27749 0.80218,11.872834 2.27591,16.564817 1.51292,4.821038 3.88081,8.858546 6.98739,12.0571808 3.14342,3.17101562 7.07936,5.5861465 11.73439,7.1439828 4.52622,1.5024671 9.8818,2.3137993 15.88278,2.3137993 3.31849,0 6.45277,-0.2673085 9.38402,-0.6728439 2.82986,-0.4146809 5.50321,-0.9124548 7.8076,-1.4841762 2.20275,-0.6174487 4.12042,-1.1891701 5.61374,-1.8160255 2.2132,-0.9401524 2.86697,-1.44733303 3.24481,-1.83431629 0.45988,-0.47922168 0.79173,-0.98640231 1.06087,-1.46562401 0.29527,-0.5440237 0.48863,-1.1246293 0.61666,-1.8711594 0.10452,-0.5991578 0.18291,-1.327397 0.2613,-2.1478747 0.0261,-0.8204777 0.0261,-1.7791824 0.0261,-2.8944571 0,-1.2537108 0,-2.3874858 -0.0784,-3.1986608 -0.10452,-1.004693 -0.28481,-1.806619 -0.58008,-2.433474 -0.33185,-0.774228 -0.80219,-1.36424 -1.45543,-1.751485 -1.26208,-0.774228 -3.02349,-0.682251 -5.53091,0.331849 -1.11575,0.414681 -2.58163,0.958705 -4.29549,1.493322 -1.74286,0.553169 -3.85311,1.032391 -6.17605,1.474769 -2.3125,0.470077 -5.08853,0.682251 -8.2134,0.682251 -2.9681,0 -5.50321,-0.368692 -7.57714,-1.124629 -1.95452,-0.728239 -3.65034,-1.816026 -4.8578,-3.180214 -1.24379,-1.382792 -2.2132,-3.097277 -2.76559,-5.106794 -0.47818,-1.594705 -0.7656,-3.373809 -0.87535,-5.300364 h 38.06128 c 2.26807,0 4.12983,-0.728239 5.48466,-2.193863 1.29865,-1.428781 1.9728,-3.548958 1.9728,-6.203752 v -2.9313 c 0,-4.774945 -0.59053,-9.273358 -1.8526,-13.338511 -1.25162,-4.166537 -3.21581,-7.789234 -5.86145,-10.849616"
       style="fill:#fcee21;fill-opacity:1;fill-rule:nonzero;stroke:none;stroke-width:9.21803379"
       id="path1654"
       inkscape:connector-curvature="0" />
    <path
       d="m 710.96008,-66.546255 c -0.13065,-0.608303 -0.28482,-1.106077 -0.43376,-1.548717 -0.2613,-0.543762 -0.59053,-0.986402 -1.05042,-1.428781 -0.40501,-0.424087 -1.04258,-0.755937 -1.8709,-1.069234 -0.67415,-0.248233 -1.40056,-0.442378 -2.2942,-0.617448 -0.87535,-0.222104 -1.67754,-0.359547 -2.47972,-0.433233 -0.79174,-0.09145 -1.53905,-0.09145 -2.23933,-0.09145 -1.53121,0 -3.07862,0.164618 -4.61819,0.562315 -1.53905,0.424087 -3.10632,1.152327 -4.65504,2.212415 -1.45543,1.0141 -3.00519,2.37834 -4.59049,4.046732 -0.55396,0.599158 -1.2072,1.253711 -1.77945,1.972805 v -2.875984 c 0,-0.811332 -0.23517,-1.567008 -0.66369,-2.249258 -0.43376,-0.672844 -1.14449,-1.226013 -1.9911,-1.576154 -0.73686,-0.304151 -1.6697,-0.525471 -2.88526,-0.672844 -1.11575,-0.146327 -2.51631,-0.203813 -4.10213,-0.203813 -1.60437,0 -2.90381,0.05487 -4.01903,0.203813 -1.15233,0.146328 -2.13742,0.368693 -2.89441,0.654553 -0.99554,0.368693 -1.71411,0.90331 -2.16616,1.594706 -0.43376,0.682251 -0.64541,1.437926 -0.64541,2.249259 v 65.57709621 c 0,0.931007 0.28482,1.74207789 0.84922,2.45202629 0.47818,0.6268554 1.28036,1.1154838 2.35169,1.4750307 0.78389,0.3041516 1.83432,0.5437625 3.18941,0.672844 1.22549,0.1019065 2.81157,0.193361 4.67359,0.193361 1.81602,0 3.43816,-0.091455 4.64589,-0.193361 1.3091,-0.1280363 2.39611,-0.3686924 3.2354,-0.672844 0.99554,-0.3595469 1.78728,-0.8481753 2.31249,-1.4750307 0.49908,-0.7096871 0.81002,-1.52101929 0.81002,-2.45202629 V -40.559166 c 1.24379,-1.889712 2.39611,-3.512063 3.49357,-4.83946 1.10529,-1.345949 2.16616,-2.424328 3.19882,-3.244754 0.94067,-0.783634 1.86305,-1.327397 2.71018,-1.668391 1.58609,-0.636001 3.20771,-0.636001 4.40602,-0.322704 0.74732,0.185522 1.37443,0.340995 1.88919,0.543762 0.64541,0.17507 1.16017,0.33185 1.65925,0.50692 1.69583,0.599157 3.11572,0.442378 4.19436,-0.359547 0.64541,-0.479222 1.11575,-1.216868 1.43715,-2.212416 0.20903,-0.783634 0.36843,-1.742339 0.48862,-3.032736 0.10452,-1.207461 0.15678,-2.68244 0.15678,-4.461517 0,-1.779183 0,-3.207885 -0.10452,-4.304843 -0.0523,-1.124629 -0.15678,-1.98195 -0.23517,-2.590253"
       style="fill:#fcee21;fill-opacity:1;fill-rule:nonzero;stroke:none;stroke-width:9.21803379"
       id="path1658"
       inkscape:connector-curvature="0" />
    <path
       d="m 832.35994,-62.841981 c -2.03813,-2.728533 -4.67359,-4.959291 -7.90925,-6.526377 -3.2448,-1.594706 -7.21759,-2.368934 -11.78979,-2.368934 -2.07471,0 -4.07443,0.248234 -6.08408,0.755937 -1.98325,0.460931 -3.94508,1.235159 -5.91789,2.221561 -1.92577,1.0141 -3.9085,2.341497 -5.88105,3.945322 -1.40056,1.115484 -2.81157,2.415183 -4.21265,3.788621 -0.64541,-1.060089 -1.35614,-2.129323 -2.14788,-3.005091 -1.36398,-1.677799 -2.95894,-3.014289 -4.81181,-4.194183 -1.82648,-1.133774 -3.89936,-2.027938 -6.2683,-2.645596 -2.27591,-0.599158 -4.83951,-0.866466 -7.70621,-0.866466 -4.21266,0 -8.26854,1.023245 -12.14935,3.134146 -2.73788,1.47477 -5.45722,3.502839 -8.20399,6.037801 v -3.253951 c 0,-0.811333 -0.2613,-1.567008 -0.63495,-2.249259 -0.47034,-0.682251 -1.17062,-1.226013 -2.01984,-1.576415 -0.71857,-0.295006 -1.69583,-0.525471 -2.86697,-0.672844 -1.11575,-0.146327 -2.51631,-0.203813 -4.12956,-0.203813 -1.60438,0 -2.92211,0.05487 -3.9545,0.203813 -1.19936,0.146328 -2.15571,0.3781 -2.93151,0.654553 -1.00338,0.368693 -1.71412,0.90331 -2.16616,1.594706 -0.47034,0.663698 -0.6637,1.437926 -0.6637,2.249259 v 65.58632006 c 0,0.92186155 0.27698,1.74233924 0.79173,2.45202634 0.55396,0.6268554 1.31956,1.106077 2.35953,1.4656239 0.82048,0.3041516 1.88919,0.5437625 3.22625,0.672844 1.23595,0.1019065 2.80243,0.2038129 4.66445,0.2038129 1.89964,0 3.39218,-0.1019064 4.66444,-0.2038129 1.3274,-0.1280363 2.38827,-0.3686924 3.24454,-0.672844 1.06871,-0.3595469 1.83432,-0.8387685 2.3125,-1.4656239 0.52521,-0.7096871 0.84922,-1.53016479 0.84922,-2.45202634 V -43.188902 c 2.33078,-2.922128 4.5168,-5.162111 6.52645,-6.710723 1.95452,-1.437926 3.85311,-2.203009 5.68743,-2.203009 1.48417,0 2.71933,0.304152 3.77942,0.90331 1.05042,0.525471 1.92577,1.299699 2.60776,2.37834 0.71073,1.152327 1.24378,2.452026 1.64096,4.120444 0.38672,1.677798 0.53566,3.548958 0.53566,5.604568 v 38.86323171 c 0,0.92186155 0.31356,1.74233919 0.85706,2.45202629 0.53566,0.6268554 1.28036,1.1060771 2.32294,1.465624 0.88581,0.3041516 1.89964,0.5437624 3.22652,0.6728439 1.22549,0.1019065 2.81131,0.203813 4.69188,0.203813 1.81602,0 3.34619,-0.1019065 4.55365,-0.203813 1.33785,-0.1280363 2.38827,-0.3686923 3.2448,-0.6728439 1.06088,-0.3595469 1.79774,-0.8387686 2.34124,-1.465624 0.56179,-0.7096871 0.83877,-1.53016474 0.83877,-2.45202629 V -43.142678 c 2.39611,-2.94055 4.65503,-5.208204 6.63698,-6.756816 1.90748,-1.437927 3.77943,-2.203009 5.6046,-2.203009 1.49201,0 2.75618,0.304152 3.82541,0.885018 1.02429,0.543763 1.88135,1.36424 2.56334,2.424329 0.74731,1.124629 1.30911,2.470578 1.65925,4.092799 0.40501,1.677798 0.58008,3.548932 0.58008,5.604568 v 38.86323162 c 0,0.90330935 0.23517,1.70523478 0.74731,2.39663098 0.53566,0.672844 1.28037,1.1429202 2.32295,1.5210193 0.8858,0.3041516 1.90748,0.5437624 3.25395,0.672844 1.23594,0.1019064 2.85756,0.2038129 4.77497,0.2038129 1.85261,0 3.40159,-0.1019065 4.63674,-0.2038129 1.31695,-0.1280364 2.38827,-0.3686924 3.2354,-0.672844 0.99555,-0.3780991 1.73241,-0.8387686 2.23933,-1.465624 0.58009,-0.7096871 0.86751,-1.53016473 0.86751,-2.45202628 V -42.146921 c 0,-3.936098 -0.4233,-7.660178 -1.25423,-11.172267 -0.83093,-3.613472 -2.25762,-6.793686 -4.21239,-9.522218"
       style="fill:#fcee21;fill-opacity:1;fill-rule:nonzero;stroke:none;stroke-width:9.21803379"
       id="path1662"
       inkscape:connector-curvature="0" />
    <path
       d="m 882.95859,-25.651348 c 1.98326,-0.405535 4.44312,-0.608303 7.27299,-0.608303 h 5.28189 v 8.692595 c -1.96236,2.138468 -3.91765,3.853136 -5.78881,4.959317 -1.91793,1.133775 -3.9639,1.714642 -6.2406,1.714642 -2.61795,0 -4.65529,-0.617449 -6.02868,-1.880566 -1.36398,-1.244304 -2.04597,-2.931353 -2.04597,-5.134466 0,-1.382792 0.27698,-2.544265 0.71073,-3.539708 0.49908,-0.921861 1.25424,-1.769775 2.32295,-2.50716 1.11574,-0.709687 2.6642,-1.318252 4.51681,-1.69609 m 26.94459,-39.545404 c -2.61795,-2.212415 -5.82592,-3.890005 -9.73442,-5.014608 -3.81627,-0.986402 -8.40676,-1.521019 -13.64266,-1.521019 -3.02349,0 -5.93645,0.193361 -8.7846,0.709687 -2.75644,0.433233 -5.39268,1.106077 -7.73418,1.880566 -2.43269,0.682251 -4.5351,1.576415 -6.31428,2.470317 -1.86306,0.931007 -3.22625,1.862014 -4.07417,2.700888 -0.89364,0.949559 -1.51292,1.972543 -1.82648,3.161765 -0.26652,1.050943 -0.4233,2.396631 -0.4233,4.065153 0,1.226014 0.0523,2.359788 0.23517,3.383034 0.18291,1.078379 0.43375,1.991095 0.75515,2.719308 0.36843,0.931007 0.9041,1.686944 1.53905,2.212416 1.59392,1.272002 3.61324,1.235158 6.46165,-0.331849 1.19937,-0.626856 2.72848,-1.428781 4.56306,-2.203009 1.76116,-0.801926 3.85311,-1.548717 6.17606,-2.175572 2.2942,-0.700542 4.84865,-0.986403 7.76161,-0.986403 2.16617,0 4.00048,0.229943 5.42012,0.645147 1.26207,0.39639 2.27591,0.96785 3.04204,1.788327 0.73686,0.811071 1.25423,1.834317 1.64095,3.115699 0.37889,1.382792 0.55396,3.014289 0.55396,4.922422 v 2.203009 h -4.59991 c -5.94558,0 -11.24603,0.433233 -15.69829,1.327397 -4.6182,0.940152 -8.54499,2.387485 -11.69756,4.360133 -3.23566,1.945107 -5.65999,4.54448 -7.31924,7.65098 -1.61221,3.032711 -2.45098,6.664631 -2.45098,10.775877 0,3.751726 0.62712,7.134759 1.92577,10.0107687 1.26208,2.9129048 3.12487,5.3280358 5.45696,7.30990744 2.29421,1.92655476 5.06084,3.33694026 8.16715,4.36935716 3.08803,0.9218616 6.46192,1.4473331 10.1491,1.4473331 4.43398,0 8.5544,-0.8941639 12.24158,-2.5993987 2.36998,-1.1246293 4.5999,-2.55341014 6.69238,-4.2495256 v 1.06923393 c 0,1.48417617 0.63496,2.40603777 1.16017,2.89448327 0.71073,0.6636985 1.70628,1.0969316 3.05118,1.3365424 1.15233,0.1567792 2.80217,0.3041516 5.13426,0.3041516 2.17662,0 3.79798,-0.1463272 4.98715,-0.2858607 1.33523,-0.2586856 2.38827,-0.6636985 3.12487,-1.2537108 0.92238,-0.709687 1.41885,-1.7883277 1.41885,-2.99586707 V -44.115388 c 0,-4.64589 -0.58008,-8.775584 -1.74286,-12.260001 -1.17062,-3.502839 -3.05119,-6.489482 -5.61374,-8.82165"
       style="fill:#fcee21;fill-opacity:1;fill-rule:nonzero;stroke:none;stroke-width:9.21803379"
       id="path1666"
       inkscape:connector-curvature="0" />
    <path
       d="m 982.91629,-66.546255 c -0.10452,-0.608303 -0.2613,-1.106077 -0.4416,-1.548717 -0.15677,-0.543762 -0.57224,-0.986402 -1.01383,-1.428781 -0.42331,-0.424087 -1.06872,-0.755937 -1.8709,-1.069234 -0.67154,-0.248233 -1.41885,-0.442378 -2.35169,-0.617448 -0.82832,-0.222104 -1.65925,-0.359547 -2.43269,-0.433233 -0.77344,-0.09145 -1.53905,-0.09145 -2.24978,-0.09145 -1.50247,0 -3.05119,0.164618 -4.5999,0.562315 -1.53121,0.424087 -3.09717,1.152327 -4.63675,2.212415 -1.46588,1.0141 -3.01434,2.37834 -4.64589,4.046732 -0.51737,0.599158 -1.15232,1.253711 -1.76115,1.972805 v -2.875984 c 0,-0.811332 -0.23517,-1.567008 -0.64541,-2.249258 -0.46249,-0.672844 -1.11574,-1.226013 -1.99893,-1.576154 -0.71857,-0.304151 -1.65925,-0.525471 -2.88526,-0.672844 -1.12358,-0.146327 -2.46143,-0.203813 -4.12042,-0.203813 -1.55734,0 -2.93125,0.05487 -3.99133,0.203813 -1.18107,0.146328 -2.09301,0.368693 -2.88526,0.654553 -1.04259,0.368693 -1.74287,0.90331 -2.16617,1.594706 -0.44159,0.682251 -0.6637,1.437926 -0.6637,2.249259 v 65.57709621 c 0,0.931007 0.23517,1.74207789 0.81003,2.45202629 0.5435,0.6268554 1.3091,1.1154838 2.34123,1.4750307 0.83093,0.3041516 1.90748,0.5437625 3.19856,0.672844 1.25423,0.1019065 2.83927,0.193361 4.69214,0.193361 1.8709,0 3.43817,-0.091455 4.67359,-0.193361 1.32739,-0.1280363 2.3961,-0.3686924 3.2171,-0.672844 1.03213,-0.3595469 1.82648,-0.8481753 2.31511,-1.4750307 0.56179,-0.7096871 0.83877,-1.52101929 0.83877,-2.45202629 V -40.559166 c 1.23594,-1.889712 2.40656,-3.512063 3.44757,-4.83946 1.13404,-1.345949 2.22104,-2.424328 3.19856,-3.244754 0.99555,-0.783634 1.89964,-1.327397 2.73763,-1.668391 1.61221,-0.636001 3.19881,-0.636001 4.46167,-0.322704 0.67154,0.185522 1.29865,0.340995 1.89964,0.543762 0.58008,0.17507 1.11575,0.33185 1.57563,0.50692 1.68799,0.599157 3.17112,0.442378 4.21266,-0.359547 0.63495,-0.479222 1.15232,-1.216868 1.4293,-2.212416 0.23517,-0.783634 0.36843,-1.742339 0.50692,-3.032736 0.0784,-1.207461 0.15678,-2.68244 0.15678,-4.461517 0,-1.779183 -0.0523,-3.207885 -0.0523,-4.304843 -0.10452,-1.124629 -0.18291,-1.98195 -0.28482,-2.590253"
       style="fill:#fcee21;fill-opacity:1;fill-rule:nonzero;stroke:none;stroke-width:9.21803379"
       id="path1670"
       inkscape:connector-curvature="0" />
    <path
       d="m 1038.2309,-12.651166 c -0.2613,-0.940153 -0.7369,-1.631549 -1.4006,-2.046491 -1.0426,-0.682251 -2.3229,-0.682251 -3.6135,-0.120198 -0.3684,0.120198 -0.9041,0.350402 -1.4946,0.534617 -0.5357,0.211652 -1.1811,0.350402 -1.8265,0.57146 -0.6715,0.101907 -1.4189,0.15678 -2.2576,0.15678 -3.3831,0 -4.2587,-1.382793 -4.5354,-1.825171 -0.959,-1.47477 -1.4188,-3.908348 -1.4188,-7.07014 v -29.009164 h 12.5642 c 0.9486,0 2.7102,-0.414943 3.7609,-2.839141 0.6088,-1.401083 0.8466,-3.521286 0.8466,-6.47106 0,-1.511874 -0.052,-2.802297 -0.209,-3.862359 -0.078,-1.170618 -0.3319,-2.037085 -0.6271,-2.774626 -0.4155,-0.875612 -0.8858,-1.557862 -1.5861,-2.009386 -0.635,-0.433234 -1.4293,-0.645147 -2.2681,-0.645147 h -12.471 v -12.822106 c 0,-0.875612 -0.2613,-1.705235 -0.8022,-2.433474 -0.5173,-0.663699 -1.2255,-1.180025 -2.2498,-1.557863 -0.857,-0.350401 -1.9074,-0.562314 -3.3184,-0.719093 -1.2804,-0.146328 -2.8393,-0.211652 -4.6919,-0.211652 -1.7978,0 -3.3462,0.06532 -4.6185,0.211652 -1.4188,0.128036 -2.451,0.368692 -3.3368,0.719093 -1.0504,0.377838 -1.816,0.912716 -2.2863,1.613258 -0.5174,0.719094 -0.72905,1.502467 -0.72905,2.37834 v 12.822289 h -6.02868 c -0.83877,0 -1.59392,0.211652 -2.23933,0.663699 -0.64541,0.433233 -1.19936,1.115484 -1.61221,1.991096 -0.28482,0.737384 -0.55396,1.60385 -0.65586,2.774625 -0.15678,1.106077 -0.18291,2.33209 -0.18291,3.86236 0,2.968195 0.26652,5.069925 0.83877,6.47106 1.04258,2.424329 2.80242,2.83914 3.78883,2.83914 h 6.09296 v 31.756145 c 0,4.184985 0.46248,7.835326 1.28038,10.9233534 0.9407,3.2078849 2.37,5.9272196 4.3417,8.04734442 1.9441,2.13872928 4.4523,3.77019948 7.4115,4.77494498 2.8576,1.0323908 6.2774,1.4933216 10.1582,1.4933216 1.4111,0 2.839,-0.047034 4.2495,-0.1750701 1.4293,-0.2221038 2.7194,-0.3872445 3.9545,-0.6913961 1.2621,-0.2950062 2.3517,-0.6545531 3.3185,-1.0600886 1.1053,-0.4700762 1.918,-0.9955477 2.5451,-1.6777984 0.682,-0.7190938 1.134,-1.76063017 1.5573,-3.2355303 0.2352,-1.2905539 0.3867,-3.0235125 0.3867,-5.3833265 0,-1.4379263 -0.052,-2.6455702 -0.209,-3.6226964 -0.078,-0.958705 -0.209,-1.732932 -0.405,-2.341497"
       style="fill:#fcee21;fill-opacity:1;fill-rule:nonzero;stroke:none;stroke-width:9.21803379"
       id="path1674"
       inkscape:connector-curvature="0" />
    <path
       d="m 257.00702,-35.911029 c -0.82831,-3.143344 -2.28636,-5.899548 -4.26805,-8.277784 -1.99893,-2.37834 -4.66418,-4.267947 -7.91813,-5.613792 -3.21711,-1.391938 -7.16246,-2.073927 -11.81749,-2.073927 -3.70574,0 -7.36523,0.700542 -10.80366,2.147875 -2.36997,0.940152 -4.72898,2.304392 -7.02423,3.972967 v -27.764704 c 0,-0.801925 -0.26129,-1.456478 -0.74731,-2.092479 -0.53566,-0.57146 -1.24378,-1.032391 -2.31511,-1.373386 -0.82047,-0.28586 -1.84215,-0.479221 -3.13401,-0.617448 -0.65325,-0.08362 -1.41101,-0.120198 -2.23933,-0.164618 l -2.58947,2.820718 7.82616,5.908746 -9.7987,0.368692 1.35352,9.688143 -7.18074,-6.636985 -2.77473,3.631921 V 9.7568629 c 0,0.7650821 0.29526,1.4656241 0.84922,2.0739271 0.47817,0.57146 1.2072,1.004693 2.23933,1.308845 0.82831,0.258686 1.87089,0.451785 3.16171,0.553169 1.19936,0.109746 2.71933,0.17507 4.5628,0.17507 1.79773,0 3.35533,-0.06532 4.59075,-0.17507 1.26207,-0.101906 2.31249,-0.295006 3.10632,-0.553169 1.03213,-0.304152 1.79773,-0.737385 2.27591,-1.308845 0.5435,-0.608303 0.81003,-1.308845 0.81003,-2.0739271 V -27.235105 c 2.2942,-2.525712 4.52621,-4.424648 6.59099,-5.770493 2.03813,-1.272001 4.04673,-1.917409 5.92704,-1.917409 1.60437,0 2.92236,0.248234 4.00989,0.746792 1.087,0.46093 1.99109,1.170617 2.73789,2.092479 0.71073,0.949559 1.29865,2.15702 1.70628,3.539734 0.38672,1.428781 0.59053,3.484417 0.59053,6.056249 V 9.7569152 c 0,0.7650828 0.30311,1.4656238 0.83093,2.0739268 0.50692,0.57146 1.25423,0.96785 2.23149,1.308845 0.79174,0.258686 1.82648,0.451785 3.14342,0.553169 1.23595,0.109746 2.81158,0.17507 4.59964,0.17507 1.76899,0 3.30935,-0.06532 4.50766,-0.17507 1.33785,-0.101906 2.40657,-0.295006 3.21711,-0.553169 1.006,-0.340995 1.70628,-0.737385 2.22104,-1.308845 0.49647,-0.608303 0.81003,-1.308844 0.81003,-2.0739268 V -24.849396 c 0,-4.323264 -0.4416,-8.001252 -1.29082,-11.061633"
       style="fill:#0093d0;fill-opacity:1;fill-rule:nonzero;stroke:none;stroke-width:9.21803379"
       id="path1678"
       inkscape:connector-curvature="0" />
    <path
       d="m 193.57495,-73.517859 c 0,-0.801925 0.27698,-1.465624 0.80219,-2.092479 0.48863,-0.57146 1.21765,-1.032391 2.22104,-1.382793 0.83877,-0.276454 1.90748,-0.470076 3.18026,-0.608303 1.24378,-0.120197 2.75618,-0.211652 4.6182,-0.211652 0.85705,0 1.62266,0.02874 2.35168,0.03658 l 4.10187,-4.378633 -9.7433,1.336542 -0.33185,-9.789553 -5.90875,7.826103 -7.1993,-6.7015 1.36398,9.725039 -9.8264,0.359547 7.82616,5.917969 -6.67383,7.208498 9.72501,-1.382793 0.36059,9.817199 3.13428,-4.148116 z"
       style="fill:#0093d0;fill-opacity:1;fill-rule:nonzero;stroke:none;stroke-width:9.21803379"
       id="path1682"
       inkscape:connector-curvature="0" />
  </g>
</svg>
